<?xml version="1.0" standalone="no"?>
<!DOCTYPE svg PUBLIC "-//W3C//DTD SVG 20010904//EN"
 "http://www.w3.org/TR/2001/REC-SVG-20010904/DTD/svg10.dtd">
<svg version="1.0" xmlns="http://www.w3.org/2000/svg"
 width="512.000000pt" height="512.000000pt" viewBox="0 0 512.000000 512.000000"
 preserveAspectRatio="xMidYMid meet">
<metadata>
Created by potrace 1.11, written by Peter Selinger 2001-2013
</metadata>
<g transform="translate(0.000000,512.000000) scale(0.100000,-0.100000)"
fill="#000000" stroke="none">
<path d="M1284 5009 c9 -136 31 -341 52 -462 l15 -89 -89 -86 c-130 -127 -204
-245 -256 -411 -73 -231 -54 -468 56 -703 l41 -86 -41 -125 c-120 -366 -133
-774 -37 -1112 35 -124 121 -292 204 -402 l70 -92 -532 -3 -532 -3 -50 -25
c-64 -31 -124 -91 -155 -155 -35 -72 -35 -198 0 -270 31 -64 91 -124 155 -155
l50 -25 844 -3 844 -2 -7 -58 c-3 -32 -20 -85 -38 -122 -32 -67 -69 -106 -271
-295 -106 -99 -150 -173 -163 -271 l-6 -52 158 53 c206 69 345 99 459 99 85 1
93 -1 140 -32 160 -104 284 -136 449 -115 88 10 175 46 281 115 47 31 55 33
140 32 114 0 253 -30 459 -99 l158 -53 -6 52 c-13 98 -57 172 -163 271 -206
192 -243 232 -273 297 -16 35 -32 89 -36 120 l-7 58 844 2 844 3 50 25 c64 31
124 91 155 155 35 72 35 198 0 270 -31 64 -91 124 -155 155 l-50 25 -532 3
-532 3 70 92 c83 110 169 278 204 402 97 340 82 755 -41 1124 l-37 112 41 87
c110 235 129 472 56 703 -52 166 -126 284 -255 410 l-88 86 24 169 c22 153 45
393 45 467 0 27 -2 28 -32 22 -110 -23 -278 -169 -426 -370 l-82 -110 -68 3
c-199 10 -439 -67 -607 -193 -66 -49 -76 -53 -96 -29 -20 24 -115 87 -184 121
-132 67 -342 112 -471 101 l-54 -5 -77 106 c-148 203 -320 352 -432 376 l-33
7 6 -113z m790 -709 c178 -45 334 -169 414 -328 23 -46 47 -110 54 -143 6 -32
15 -59 18 -59 3 0 12 27 18 59 21 103 86 216 171 301 255 254 648 254 901 0
254 -253 254 -647 0 -900 -224 -224 -550 -252 -827 -70 l-32 22 -113 -226
c-62 -124 -115 -226 -118 -226 -3 0 -55 99 -115 221 -61 121 -113 223 -117
225 -5 3 -23 -6 -40 -19 -54 -40 -135 -77 -216 -98 -336 -86 -685 125 -772
467 -86 336 123 685 462 774 97 25 214 25 312 0z"/>
<path d="M1824 3986 c-64 -20 -131 -72 -169 -129 -108 -164 -48 -380 130 -468
41 -20 65 -24 135 -24 70 0 94 4 135 24 63 32 124 93 156 156 35 72 35 198 0
270 -32 63 -93 125 -155 155 -60 28 -171 36 -232 16z"/>
<path d="M3102 3986 c-224 -73 -295 -363 -130 -528 69 -70 127 -93 228 -93 70
0 94 4 135 24 63 32 124 93 156 156 35 72 35 198 0 270 -32 64 -100 131 -159
157 -59 27 -171 33 -230 14z"/>
</g>
</svg>
